/* XPM */
static const char * edit_xpm[] = {
"16 16 60 1",
" 	c None",
".	c #664A15",
"+	c #64460F",
"@	c #725321",
"#	c #F9CAC2",
"$	c #F3695E",
"%	c #65420C",
"&	c #60440C",
"*	c #D6BAAA",
"=	c #F18E8E",
"-	c #F9201C",
";	c #643D0B",
">	c #9F804F",
",	c #D1B9AF",
"'	c #BAAEAE",
")	c #9B4018",
"!	c #61440D",
"~	c #6A4E16",
"{	c #D7B169",
"]	c #CE962F",
"^	c #AE7661",
"/	c #61430D",
"(	c #C19C57",
"_	c #D3A145",
":	c #AE7C1C",
"<	c #5E420C",
"[	c #9A7837",
"}	c #D9AE5D",
"|	c #C38A20",
"1	c #6E4D10",
"2	c #6F521A",
"3	c #D8B16A",
"4	c #CD942B",
"5	c #8A6115",
"6	c #62450D",
"7	c #60430D",
"8	c #C7A15B",
"9	c #D29F40",
"0	c #A7761B",
"a	c #5F420C",
"b	c #A27F3E",
"c	c #D8AB59",
"d	c #BE871F",
"e	c #694A0E",
"f	c #73561C",
"g	c #D9B166",
"h	c #CA9127",
"i	c #845D14",
"j	c #61440C",
"k	c #BB9E5B",
"l	c #E3D5A2",
"m	c #A77A27",
"n	c #5E430B",
"o	c #D3BC7C",
"p	c #CCB474",
"q	c #6B4E15",
"r	c #6D5527",
"s	c #6E592C",
"t	c #60440D",
"u	c #5E430F",
"           .+   ",
"          @#$%  ",
"         &*=-;  ",
"        &>,')!  ",
"        ~{]^/   ",
"       &(_:<    ",
"      ![}|1&    ",
"      23456     ",
"     7890a      ",
"    !bcde       ",
"    fghi6       ",
"   jklmn        ",
"   6opq         ",
"   rst          ",
"   u!           ",
"                "};
