/* XPM */
static const char * pan_xpm[] = {
"16 16 64 1",
" 	c None",
".	c #646564",
"+	c #727272",
"@	c #BEC0BC",
"#	c #DFE1DD",
"$	c #2D2D2D",
"%	c #7E7F7C",
"&	c #ECEFE8",
"*	c #E9EDE6",
"=	c #A5A6A4",
"-	c #464845",
";	c #B9BBB7",
">	c #D8DAD7",
",	c #666765",
"'	c #333332",
")	c #474847",
"!	c #121312",
"~	c #8B8C8A",
"{	c #696B69",
"]	c #444544",
"^	c #A5A7A4",
"/	c #3F403F",
"(	c #5A5A5A",
"_	c #C4C6C2",
":	c #F6F9F4",
"<	c #DCDDDB",
"[	c #656764",
"}	c #A3A5A2",
"|	c #B8B9B7",
"1	c #F2F5EF",
"2	c #E0E3DE",
"3	c #8A8B8A",
"4	c #0C0D0C",
"5	c #CACCC8",
"6	c #EEF1EB",
"7	c #D3D5D2",
"8	c #3E3F3E",
"9	c #6C6E6C",
"0	c #ACAEAA",
"a	c #9D9F9C",
"b	c #F3F6EF",
"c	c #CED0CB",
"d	c #828281",
"e	c #191A19",
"f	c #8B8D89",
"g	c #5F615E",
"h	c #343534",
"i	c #888A87",
"j	c #2F302F",
"k	c #3A3A3A",
"l	c #525252",
"m	c #4F514E",
"n	c #C3C5C2",
"o	c #E0E2DE",
"p	c #717270",
"q	c #797B78",
"r	c #E9ECE6",
"s	c #E8ECE5",
"t	c #A0A19F",
"u	c #BABBB8",
"v	c #DCDDDA",
"w	c #242525",
"x	c #5C5D5C",
"y	c #686868",
"                ",
"       .+       ",
"       @#$      ",
"      %&*=      ",
"      -;>,      ",
"       ')       ",
"  !~{      ]^/  ",
" (_:<] [}  |1234",
" .5678 90  abcd ",
"  efg      hij  ",
"       kl       ",
"      mnop      ",
"      qrst      ",
"       uvw      ",
"       xy       ",
"                "};
