/* XPM */
static char * pan_xpm[] = {
"16 16 57 1",
" 	c None",
".	c #2A2A2A",
"+	c #313131",
"@	c #737373",
"#	c #909090",
"$	c #939393",
"%	c #F6F6F6",
"&	c #343434",
"*	c #9C9C9C",
"=	c #636363",
"-	c #ADADAD",
";	c #000000",
">	c #929292",
",	c #F9F9F9",
"'	c #404040",
")	c #FFFFFF",
"!	c #8C8C8C",
"~	c #383838",
"{	c #E5E5E5",
"]	c #C0C0C0",
"^	c #949494",
"/	c #8E8E8E",
"(	c #181818",
"_	c #C4C4C4",
":	c #CCCCCC",
"<	c #E2E2E2",
"[	c #A9A9A9",
"}	c #838383",
"|	c #B4B4B4",
"1	c #F4F4F4",
"2	c #2B2B2B",
"3	c #979797",
"4	c #464646",
"5	c #1B1B1B",
"6	c #FEFEFE",
"7	c #FDFDFD",
"8	c #C6C6C6",
"9	c #D8D8D8",
"0	c #C8C8C8",
"a	c #3C3C3C",
"b	c #FAFAFA",
"c	c #818181",
"d	c #9D9D9D",
"e	c #EBEBEB",
"f	c #E1E1E1",
"g	c #292929",
"h	c #757575",
"i	c #F7F7F7",
"j	c #767676",
"k	c #B8B8B8",
"l	c #393939",
"m	c #525252",
"n	c #888888",
"o	c #2E2E2E",
"p	c #DADADA",
"q	c #DDDDDD",
"r	c #7D7D7D",
"                ",
"                ",
"       .+       ",
"    @# $%&*=    ",
"    -%;>,')!    ",
"    ~{]^,')/(_; ",
"     :<[,=)}|1; ",
"  2345)6)7)89%; ",
"  +)0a))))))bc  ",
"   d7e))))))1.  ",
"    [)))))))fg  ",
"    hi))))))h   ",
"     j7))))kl   ",
"      m7)))n    ",
"      o9ppqr    ",
"                "};
