/* XPM */
static const char * pan_xpm[] = {
"16 16 3 1",
" 	c None",
".	c #204A87",
"+	c #729FCF",
"       .        ",
"      .+.       ",
"     .+++.      ",
"     ..+..      ",
"      .+.       ",
"  ..  .+.  ..   ",
" .+....+....+.  ",
".+++++++++++++. ",
" .+....+....+.  ",
"  ..  .+.  ..   ",
"      .+.       ",
"     ..+..      ",
"     .+++.      ",
"      .+.       ",
"       .        ",
"                "};
