/* XPM */
static const char * zoom_in_xpm[] = {
"16 16 65 1",
" 	c None",
".	c #2E3436",
"+	c #2F3537",
"@	c #7C7F80",
"#	c #C0C1C0",
"$	c #DCDDDA",
"%	c #C9CCC8",
"&	c #A6A9A6",
"*	c #3A4042",
"=	c #3C4244",
"-	c #D7D8D6",
";	c #EDEDEB",
">	c #E9EAE6",
",	c #E5E6E2",
"'	c #E1E3DE",
")	c #DDDFD9",
"!	c #D7DAD4",
"~	c #6F7472",
"{	c #EEEEEC",
"]	c #B0B1AE",
"^	c #EBEBE9",
"/	c #D7DBD4",
"(	c #D4D8D1",
"_	c #3F4546",
":	c #7D8081",
"<	c #ECEDEA",
"[	c #585A56",
"}	c #DFE1DC",
"|	c #BABDB9",
"1	c #C0C2C1",
"2	c #E8E9E6",
"3	c #555753",
"4	c #EAEBE8",
"5	c #DCDED8",
"6	c #D7D9D4",
"7	c #E4E6E2",
"8	c #AFB0AC",
"9	c #E0E2DD",
"0	c #303638",
"a	c #ECECEA",
"b	c #E4E6E1",
"c	c #A5A9A6",
"d	c #B4B6B4",
"e	c #3B4142",
"f	c #D7DAD3",
"g	c #AFB0AD",
"h	c #EBEBE8",
"i	c #E8E9E7",
"j	c #3A3F40",
"k	c #757978",
"l	c #D4D8D0",
"m	c #616566",
"n	c #303738",
"o	c #464C4D",
"p	c #BFC2BD",
"q	c #D6D9D3",
"r	c #DCDDD9",
"s	c #B4B7B5",
"t	c #3A3F41",
"u	c #3B3F3F",
"v	c #323739",
"w	c #363C3E",
"x	c #383D3E",
"y	c #303537",
"z	c #3B4040",
"    .....       ",
"   +@#$%&*.     ",
"  =-;>,')!~.    ",
" +-{;;]^'/(_    ",
".:<;{{[{{}/|.   ",
".12;{{3{{456.   ",
".$78[333[]9'0   ",
".%9^{{3{{ab$+   ",
".c)'{{[{{42d.   ",
" ef/'ag;haij    ",
" .kl/5'b2imn    ",
"  .opq9rstnuv   ",
"    ..w+.  vxy  ",
"            yzy ",
"             yx0",
"              00"};
