/* XPM */
static const char * zoom_fit_xpm[] = {
"16 16 58 1",
" 	c None",
".	c #2E3436",
"+	c #2F3537",
"@	c #7C7F80",
"#	c #C0C1C0",
"$	c #DCDDDA",
"%	c #C9CCC8",
"&	c #A6A9A6",
"*	c #3A4042",
"=	c #3C4244",
"-	c #D7D8D6",
";	c #EDEDEB",
">	c #E9EAE6",
",	c #E5E6E2",
"'	c #E1E3DE",
")	c #DDDFD9",
"!	c #D7DAD4",
"~	c #6F7472",
"{	c #555753",
"]	c #EDEEEB",
"^	c #D4D8D1",
"/	c #3F4546",
"(	c #7D8081",
"_	c #ECEDEA",
":	c #EEEEEC",
"<	c #D7DBD4",
"[	c #BABDB9",
"}	c #C0C2C1",
"|	c #E8E9E6",
"1	c #DCDED8",
"2	c #D7D9D4",
"3	c #E4E6E2",
"4	c #EEEEEB",
"5	c #E0E2DD",
"6	c #303638",
"7	c #E4E6E1",
"8	c #A5A9A6",
"9	c #B4B6B4",
"0	c #3B4142",
"a	c #D7DAD3",
"b	c #E8E9E7",
"c	c #3A3F40",
"d	c #757978",
"e	c #D4D8D0",
"f	c #616566",
"g	c #303738",
"h	c #464C4D",
"i	c #BFC2BD",
"j	c #D6D9D3",
"k	c #DCDDD9",
"l	c #B4B7B5",
"m	c #3A3F41",
"n	c #3B3F3F",
"o	c #323739",
"p	c #363C3E",
"q	c #383D3E",
"r	c #303537",
"s	c #3B4040",
"    .....       ",
"   +@#$%&*.     ",
"  =-;>,')!~.    ",
" +-{{{]{{{^/    ",
".(_{:::::{<[.   ",
".}|{:::::{12.   ",
".$34:::::;5'6   ",
".%5{:::::{7$+   ",
".8){:::::{|9.   ",
" 0a{{{:{{{bc    ",
" .de<1'7|bfg    ",
"  .hij5klmgno   ",
"    ..p+.  oqr  ",
"            rsr ",
"             rq6",
"              66"};
