/* XPM */
static const char * zoom_select_xpm[] = {
"16 16 75 1",
" 	c None",
".	c #2E3436",
"+	c #2F3537",
"@	c #7C7F80",
"#	c #C0C1C0",
"$	c #DCDDDA",
"%	c #C9CCC8",
"&	c #A6A9A6",
"*	c #3A4042",
"=	c #1315AA",
"-	c #353A59",
";	c #D7D8D6",
">	c #EDEDEB",
",	c #E9EAE6",
"'	c #E5E6E2",
")	c #E1E3DE",
"!	c #DDDFD9",
"~	c #D7DAD4",
"{	c #6F7472",
"]	c #1518A1",
"^	c #4B4CF0",
"/	c #7676F5",
"(	c #7575F4",
"_	c #7071EE",
":	c #6163EA",
"<	c #4D4FED",
"[	c #383D59",
"}	c #7D8081",
"|	c #7576F4",
"1	c #0D0DFD",
"2	c #0303FE",
"3	c #BABDB9",
"4	c #C0C2C1",
"5	c #7374F2",
"6	c #6D6EEB",
"7	c #D7D9D4",
"8	c #7172F0",
"9	c #6F70EE",
"0	c #303638",
"a	c #A5A9A6",
"b	c #6E6FEC",
"c	c #1414FD",
"d	c #5F5FF5",
"e	c #B4B6B4",
"f	c #3B4142",
"g	c #5F60EB",
"h	c #6062EB",
"i	c #7575F3",
"j	c #5656F6",
"k	c #333855",
"l	c #1C2080",
"m	c #54579D",
"n	c #D4D8D0",
"o	c #D7DBD4",
"p	c #DCDED8",
"q	c #E4E6E1",
"r	c #E8E9E6",
"s	c #E8E9E7",
"t	c #616566",
"u	c #181C98",
"v	c #464C4D",
"w	c #BFC2BD",
"x	c #D6D9D3",
"y	c #E0E2DD",
"z	c #DCDDD9",
"A	c #B4B7B5",
"B	c #3A3F41",
"C	c #303738",
"D	c #3B3F3F",
"E	c #242770",
"F	c #363C3E",
"G	c #323739",
"H	c #383D3E",
"I	c #303537",
"J	c #3B4040",
"    .....       ",
"   +@#$%&*.     ",
" =-;>,')!~{]    ",
" +^////(_:<[    ",
".}|1/////2:3.   ",
".45/>>>>>/67.   ",
".$8/>>>>>/9)0   ",
".%9/>>>>>/8$+   ",
".abcd////15e.   ",
" fgh_(//i(jk    ",
" lmnop)qrstu    ",
"  .vwxyzABCDE   ",
"    ..F+.  GHI  ",
"            IJI ",
"             IH0",
"              00"};
