/* XPM */
static const char * zoom_out_xpm[] = {
"16 16 65 1",
" 	c None",
".	c #2E3436",
"+	c #2F3537",
"@	c #7C7F80",
"#	c #C0C1C0",
"$	c #DCDDDA",
"%	c #C9CCC8",
"&	c #A6A9A6",
"*	c #3A4042",
"=	c #3C4244",
"-	c #D7D8D6",
";	c #EDEDEB",
">	c #E9EAE6",
",	c #E5E6E2",
"'	c #E1E3DE",
")	c #DDDFD9",
"!	c #D7DAD4",
"~	c #6F7472",
"{	c #EEEEEC",
"]	c #EDEEEB",
"^	c #EBEBE9",
"/	c #D7DBD4",
"(	c #D4D8D1",
"_	c #3F4546",
":	c #7D8081",
"<	c #ECEDEA",
"[	c #DFE1DC",
"}	c #BABDB9",
"|	c #C0C2C1",
"1	c #E8E9E6",
"2	c #EAEBE8",
"3	c #DCDED8",
"4	c #D7D9D4",
"5	c #E4E6E2",
"6	c #AFB0AC",
"7	c #585A56",
"8	c #555753",
"9	c #B0B1AE",
"0	c #E0E2DD",
"a	c #303638",
"b	c #ECECEA",
"c	c #E4E6E1",
"d	c #A5A9A6",
"e	c #B4B6B4",
"f	c #3B4142",
"g	c #D7DAD3",
"h	c #EBEBE8",
"i	c #E8E9E7",
"j	c #3A3F40",
"k	c #757978",
"l	c #D4D8D0",
"m	c #616566",
"n	c #303738",
"o	c #464C4D",
"p	c #BFC2BD",
"q	c #D6D9D3",
"r	c #DCDDD9",
"s	c #B4B7B5",
"t	c #3A3F41",
"u	c #3B3F3F",
"v	c #323739",
"w	c #363C3E",
"x	c #383D3E",
"y	c #303537",
"z	c #3B4040",
"    .....       ",
"   +@#$%&*.     ",
"  =-;>,')!~.    ",
" +-{;;]^'/(_    ",
".:<;{{{{{[/}.   ",
".|1;{{{{{234.   ",
".$567888790'a   ",
".%0^{{{{{bc$+   ",
".d)'{{{{{21e.   ",
" fg/'b{;hbij    ",
" .kl/3'c1imn    ",
"  .opq0rstnuv   ",
"    ..w+.  vxy  ",
"            yzy ",
"             yxa",
"              aa"};
